<svg id="Layer_1" data-name="Layer 1" xmlns="http://www.w3.org/2000/svg" viewBox="0 0 254 255">
  <defs>
    <style>
      .cls-1 {
        fill: #edf4d7;
      }

      .cls-2 {
        font-size: 12px;
        font-family: MyriadPro-Regular, Myriad Pro;
      }

      .cls-3 {
        letter-spacing: -0.01em;
      }

      .cls-4 {
        letter-spacing: -0.01em;
      }

      .cls-5 {
        letter-spacing: 0em;
      }

      .cls-6 {
        letter-spacing: -0.01em;
      }

      .cls-7 {
        letter-spacing: 0.01em;
      }

      .cls-8 {
        letter-spacing: -0.01em;
      }

      .cls-9 {
        letter-spacing: -0.01em;
      }

      .cls-10 {
        letter-spacing: 0em;
      }

      .cls-11 {
        letter-spacing: -0.01em;
      }

      .cls-12 {
        letter-spacing: 0em;
      }

      .cls-13 {
        letter-spacing: 0em;
      }

      .cls-14 {
        letter-spacing: -0.01em;
      }
    </style>
  </defs>
  <title>Untitled-4 [Recovered]</title>
  <g>
    <ellipse class="cls-1" cx="127" cy="127.5" rx="126.5" ry="127"/>
    <path d="M575,149a126.6,126.6,0,0,1,89.09,216,126.25,126.25,0,0,1-178.18-178.9A124.9,124.9,0,0,1,575,149m0-1c-70.14,0-127,57.08-127,127.5S504.86,403,575,403s127-57.08,127-127.5S645.14,148,575,148Z" transform="translate(-448 -148)"/>
  </g>
  <g id="tal">
    <text class="cls-2" transform="translate(57 81.52)"><tspan class="cls-3">L</tspan><tspan x="5.5" y="0">o</tspan><tspan class="cls-4" x="12.08" y="0">r</tspan><tspan x="15.89" y="0">em ipsum dolor sit ame</tspan><tspan class="cls-5" x="133.13" y="0">t</tspan><tspan x="137.06" y="0">, </tspan><tspan class="cls-6" x="0" y="14.4">c</tspan><tspan x="5.3" y="14.4">onse</tspan><tspan class="cls-7" x="29.32" y="14.4">c</tspan><tspan class="cls-8" x="34.85" y="14.4">t</tspan><tspan x="38.75" y="14.4">etuer adipiscing eli</tspan><tspan class="cls-5" x="133.32" y="14.4">t</tspan><tspan x="137.25" y="14.4">, </tspan><tspan x="0" y="28.8">sed diam nonum</tspan><tspan class="cls-9" x="84.52" y="28.8">m</tspan><tspan x="94.37" y="28.8">y nibh </tspan><tspan x="0" y="43.2">euismod tincidu</tspan><tspan class="cls-10" x="81.1" y="43.2">n</tspan><tspan x="87.71" y="43.2">t ut lao</tspan><tspan class="cls-4" x="122.55" y="43.2">r</tspan><tspan x="126.36" y="43.2">eet </tspan><tspan x="0" y="57.6">dolo</tspan><tspan class="cls-4" x="22.78" y="57.6">r</tspan><tspan x="26.58" y="57.6">e ma</tspan><tspan class="cls-6" x="50.93" y="57.6">g</tspan><tspan x="57.56" y="57.6">na aliquam e</tspan><tspan class="cls-11" x="121.69" y="57.6">r</tspan><tspan class="cls-10" x="125.55" y="57.6">a</tspan><tspan x="131.29" y="57.6">t </tspan><tspan class="cls-4" x="0" y="72">v</tspan><tspan x="5.65" y="72">olutp</tspan><tspan class="cls-10" x="32.48" y="72">a</tspan><tspan class="cls-5" x="38.22" y="72">t</tspan><tspan x="42.15" y="72">. </tspan><tspan class="cls-12" x="47.18" y="72">U</tspan><tspan x="54.99" y="72">t wisi enim ad </tspan><tspan x="0" y="86.4">minim </tspan><tspan class="cls-4" x="34.84" y="86.4">v</tspan><tspan x="40.49" y="86.4">eniam, quis nostrud </tspan><tspan class="cls-13" x="0" y="100.8">e</tspan><tspan class="cls-14" x="5.98" y="100.8">x</tspan><tspan x="11.35" y="100.8">e</tspan><tspan class="cls-4" x="17.36" y="100.8">r</tspan><tspan x="21.17" y="100.8">ci t</tspan><tspan class="cls-10" x="35.87" y="100.8">a</tspan><tspan x="41.6" y="100.8">tion ullam</tspan><tspan class="cls-6" x="92.24" y="100.8">c</tspan><tspan x="97.55" y="100.8">o</tspan><tspan class="cls-12" x="104.13" y="100.8">r</tspan><tspan x="108.11" y="100.8">per </tspan></text>
  </g>
</svg>
