<?xml version="1.0" encoding="utf-8"?>
<!-- Generator: Adobe Illustrator 22.1.0, SVG Export Plug-In . SVG Version: 6.00 Build 0)  -->
<svg version="1.1" id="Lag_1" xmlns="http://www.w3.org/2000/svg" xmlns:xlink="http://www.w3.org/1999/xlink" x="0px" y="0px"
	 viewBox="0 0 500 800" style="enable-background:new 0 0 500 800;" xml:space="preserve">
<style type="text/css">
	.st0{fill:#EAEAEA;}
	.st1{fill:none;stroke:#000000;stroke-width:0.25;stroke-miterlimit:10;}
	.st2{font-family:'MyriadPro-Regular';}
	.st3{font-size:12px;}
	.st4{fill:#FEB700;}
</style>
<g>
	<path class="st0" d="M230.4,333.4c-2.7,0-5.2-0.9-7.3-2.5l-28.4-22.1c-2.5-1.9-4.1-4.7-4.5-7.9c-0.4-3.2,0.5-6.3,2.4-8.8l49.7-64
		c2.3-2.9,5.7-4.6,9.4-4.6c2.7,0,5.2,0.9,7.3,2.5l28.4,22.1c2.5,1.9,4.1,4.7,4.5,7.9c0.4,3.2-0.5,6.3-2.4,8.8l-49.7,64
		C237.5,331.7,234.1,333.4,230.4,333.4z"/>
	<path d="M251.6,223.7L251.6,223.7c2.6,0,5.1,0.8,7.2,2.5l28.4,22.1c5.1,4,6,11.4,2.1,16.5l-49.7,64c-2.2,2.9-5.6,4.5-9.3,4.5
		c-2.6,0-5.1-0.8-7.2-2.5l-28.4-22.1c-5.1-4-6-11.4-2.1-16.5l49.7-64C244.6,225.4,248,223.7,251.6,223.7 M251.6,223.5
		c-3.6,0-7.1,1.6-9.5,4.6l-49.7,64c-4,5.2-3.1,12.8,2.1,16.8L223,331c2.2,1.7,4.8,2.5,7.3,2.5c3.6,0,7.1-1.6,9.5-4.6l49.7-64
		c4-5.2,3.1-12.8-2.1-16.8L259,226C256.8,224.3,254.2,223.5,251.6,223.5L251.6,223.5z"/>
</g>
<g>
	<line class="st1" x1="245.7" y1="239.8" x2="278.9" y2="265.5"/>
</g>
<g>
	<line class="st1" x1="235.3" y1="253.2" x2="268.5" y2="279"/>
</g>
<g>
	<line class="st1" x1="224.3" y1="267.4" x2="257.5" y2="293.2"/>
</g>
<g>
	<line class="st1" x1="213.9" y1="280.8" x2="247" y2="306.6"/>
</g>
<g>
	<line class="st1" x1="204" y1="293.5" x2="237.2" y2="319.2"/>
</g>
<line class="st1" x1="278.8" y1="247.7" x2="219.9" y2="323.6"/>
<line class="st1" x1="264.6" y1="236.7" x2="205.7" y2="312.5"/>
<text transform="matrix(0.7898 0.6133 -0.6133 0.7898 246.8575 236.3092)" class="st2 st3">12</text>
<text transform="matrix(0.7898 0.6133 -0.6133 0.7898 260.2847 246.7354)" class="st2 st3">54</text>
<text transform="matrix(0.7898 0.6133 -0.6133 0.7898 272.9219 256.5484)" class="st2 st3">03</text>
<text transform="matrix(0.7898 0.6133 -0.6133 0.7898 263.1089 269.1859)" class="st2 st3">49</text>
<text transform="matrix(0.7898 0.6133 -0.6133 0.7898 252.6827 282.6131)" class="st2 st3">17</text>
<text transform="matrix(0.7898 0.6133 -0.6133 0.7898 240.0455 272.8001)" class="st2 st3">36</text>
<text transform="matrix(0.7898 0.6133 -0.6133 0.7898 250.4717 259.3729)" class="st2 st3">63</text>
<text transform="matrix(0.7898 0.6133 -0.6133 0.7898 237.0445 248.9466)" class="st2 st3">73</text>
<text transform="matrix(0.7898 0.6133 -0.6133 0.7898 226.6182 262.3739)" class="st2 st3">88</text>
<text transform="matrix(0.7898 0.6133 -0.6133 0.7898 216.192 275.8014)" class="st2 st3">09</text>
<text transform="matrix(0.7898 0.6133 -0.6133 0.7898 229.6192 286.2276)" class="st2 st3">27</text>
<text transform="matrix(0.7898 0.6133 -0.6133 0.7898 242.2564 296.0406)" class="st2 st3">68</text>
<text transform="matrix(0.7898 0.6133 -0.6133 0.7898 231.8301 309.4679)" class="st2 st3">43</text>
<text transform="matrix(0.7898 0.6133 -0.6133 0.7898 219.1929 299.6549)" class="st2 st3">96</text>
<text transform="matrix(0.7898 0.6133 -0.6133 0.7898 205.7657 289.2286)" class="st2 st3">57</text>
<text transform="matrix(0.7898 0.6133 -0.6133 0.7898 195.9527 301.8661)" class="st2 st3">22</text>
<text transform="matrix(0.7898 0.6133 -0.6133 0.7898 209.3799 312.2923)" class="st2 st3">74</text>
<text transform="matrix(0.7898 0.6133 -0.6133 0.7898 222.0172 322.1053)" class="st2 st3">07</text>
<g>
	<path class="st0" d="M190,324.9c-6.5,0-11.9-5.3-11.9-11.9v-81c0-6.5,5.3-11.9,11.9-11.9h36c6.5,0,11.9,5.3,11.9,11.9v81
		c0,6.5-5.3,11.9-11.9,11.9H190z"/>
	<path d="M226,220.3c6.5,0,11.8,5.3,11.8,11.8v81c0,6.5-5.3,11.8-11.8,11.8h-36c-6.5,0-11.8-5.3-11.8-11.8v-81
		c0-6.5,5.3-11.8,11.8-11.8H226 M226,220h-36c-6.6,0-12,5.4-12,12v81c0,6.6,5.4,12,12,12h36c6.6,0,12-5.4,12-12v-81
		C238,225.4,232.6,220,226,220L226,220z"/>
</g>
<g>
	<line class="st1" x1="188" y1="239" x2="230" y2="239"/>
</g>
<g>
	<line class="st1" x1="188" y1="256" x2="230" y2="256"/>
</g>
<g>
	<line class="st1" x1="188" y1="274" x2="230" y2="274"/>
</g>
<g>
	<line class="st1" x1="188" y1="291" x2="230" y2="291"/>
</g>
<g>
	<line class="st1" x1="188" y1="307" x2="230" y2="307"/>
</g>
<line class="st1" x1="219" y1="225" x2="219" y2="321"/>
<line class="st1" x1="201" y1="225" x2="201" y2="321"/>
<text transform="matrix(1 0 0 1 186.75 235.5835)" class="st2 st3">12</text>
<text transform="matrix(1 0 0 1 203.75 235.5835)" class="st2 st3">54</text>
<text transform="matrix(1 0 0 1 219.75 235.5835)" class="st2 st3">03</text>
<text transform="matrix(1 0 0 1 219.75 251.5835)" class="st2 st3">49</text>
<text transform="matrix(1 0 0 1 219.75 268.5835)" class="st2 st3">17</text>
<text transform="matrix(1 0 0 1 203.75 268.5835)" class="st2 st3">36</text>
<text transform="matrix(1 0 0 1 203.75 251.5835)" class="st2 st3">63</text>
<text transform="matrix(1 0 0 1 186.75 251.5835)" class="st2 st3">73</text>
<text transform="matrix(1 0 0 1 186.75 268.5835)" class="st2 st3">88</text>
<text transform="matrix(1 0 0 1 186.75 285.5835)" class="st2 st3">09</text>
<text transform="matrix(1 0 0 1 203.75 285.5835)" class="st2 st3">27</text>
<text transform="matrix(1 0 0 1 219.75 285.5835)" class="st2 st3">68</text>
<text transform="matrix(1 0 0 1 219.75 302.5835)" class="st2 st3">43</text>
<text transform="matrix(1 0 0 1 203.75 302.5835)" class="st2 st3">96</text>
<text transform="matrix(1 0 0 1 186.75 302.5835)" class="st2 st3">57</text>
<text transform="matrix(1 0 0 1 186.75 318.5835)" class="st2 st3">22</text>
<text transform="matrix(1 0 0 1 203.75 318.5835)" class="st2 st3">74</text>
<text transform="matrix(1 0 0 1 219.75 318.5835)" class="st2 st3">07</text>
<path class="st4" d="M260.6,302.7h-45.3c-2.4,0-4.4-2-4.4-4.4v-3.5c0-2.4,2-4.4,4.4-4.4h45.3c2.4,0,4.4,2,4.4,4.4v3.5
	C265,300.8,263,302.7,260.6,302.7z"/>
<path class="st4" d="M231.9,320v-46c0-2.2,1.8-4,4-4h4.3c2.2,0,4,1.8,4,4v46c0,2.2-1.8,4-4,4h-4.3C233.7,324,231.9,322.2,231.9,320z
	"/>
</svg>
