<svg xmlns="http://www.w3.org/2000/svg" viewBox="0 0 204.2 71.28">
  <defs>
    <style>
      .cls-1 {
        fill: #fff;
      }
    </style>
  </defs>
  <title>bingo-hvid</title>
  <g>
    <path class="cls-1" d="M377.91,273c1.2-12.16-8.37-11-13.65-6.16-5.44,5-2.27,14.21,5,14.47C373.92,281.53,377.44,277.68,377.91,273Zm0,22.3c-.08-.88.12-5.61-1.85-7.4-4.25-3.94-11.89,1.34-11.46,8.28.12,1.06,1,7.18,1.31,9.12s1.69,9.78,1.69,9.78a7.58,7.58,0,0,0,1.52,4c2.83,3.05,8.77,2,9.15-2.55,0-.69-.14-3.9-.13-11.05C378.15,298.7,377.91,295.32,377.91,295.32Zm-56,11.87c1.29,6,3.71,15.11,7.57,17.09,4.8,2.44,21.13-.6,26.24-8.64a19.66,19.66,0,0,0,3-11,20.85,20.85,0,0,0-8-16.18c6.52-13.2-3.51-24.89-14.5-21.46-12.18,3.77-16.58,8.45-16.58,18.08A116.45,116.45,0,0,0,321.88,307.19Zm13.84-31.61c2.7-1.12,5.64,1.3,5.24,5.18-.5,4.74-9,12.66-9.93,4.4C330.25,278.23,332.14,277,335.72,275.58ZM334.79,311c-1.93-4.62-5.05-12.84,3.42-13.76,4-.41,7.89,3.06,8.14,7.66C346.68,311.25,337,316.2,334.79,311Zm83-19.15c-2.47-16.29-21.41-20.48-30.2-9.81-3.2,3.89-1.63,14.82-1.25,20.17S387.4,314,387.4,314l.21,1.09c1.23,6.17,9.9,2.71,11.78-1.26.8-1.71.35-7,.2-11-.09-3-.23-5.89-.23-5.89-.59-8.81,7.05-7.86,9.12-4.62,1.49,2.35,1.52,6.18,1.54,9.08s-.31,7.19-.31,7.19l0,1.07c-.1,4,3.94,2.26,5.56.24a12.75,12.75,0,0,0,2.31-5.1A37.69,37.69,0,0,0,417.78,291.86Zm64-9.23c-16.71,9-15.38,36,.37,39.61,10.32,2.41,21.08-7,23-20.11C507.42,286.8,498.45,273.63,481.73,282.63Zm14.14,22.2c-1.2,7.42-8.71,11.12-12.54,6.15-4.43-5.7.55-16.26,7.31-15.48C494.28,295.94,496.61,300.08,495.87,304.83Zm-31.45-8.23c1.11-20.13-20.7-25.34-32.44-14.72-13.33,12.08-7.68,33.58,9.18,34.83a23.13,23.13,0,0,0,7.59-.94c-1.87,6.89-8.56,6.93-17.81,6.65-8.64-.26-10.75,9.37-5.6,10.72,20.43,5.38,31.55-3.68,35.92-20C463.55,304.53,464,303.83,464.42,296.6Zm-11.55-1.35c-1.22,7.91-9.46,10.92-13.17,4.84s.94-15.39,7.39-14.53C451,286.09,453.62,290.41,452.87,295.25Z" transform="translate(-319.7 -263.41)"/>
    <g>
      <path class="cls-1" d="M519.11,283.24l-1.35-2.09h-.67v2.09H516v-5.59h2c1.27,0,2.1.46,2.1,1.72a1.54,1.54,0,0,1-1.11,1.52l0,.05,1.63,2.3Zm-1.3-4.78h-.72v1.86h.72c.68,0,1-.21,1-.93S518.49,278.46,517.81,278.46Z" transform="translate(-319.7 -263.41)"/>
      <path class="cls-1" d="M511.91,280.71a6,6,0,1,0,6-6A6,6,0,0,0,511.91,280.71Zm1.16,0a4.84,4.84,0,1,1,4.83,4.83A4.83,4.83,0,0,1,513.07,280.71Z" transform="translate(-319.7 -263.41)"/>
    </g>
  </g>
</svg>
