<svg xmlns="http://www.w3.org/2000/svg" viewBox="0 0 235 359">
  <defs>
    <style>
      .cls-1 {
        isolation: isolate;
      }

      .cls-2 {
        fill: #ef0a21;
      }

      .cls-3 {
        fill: #020202;
      }

      .cls-4 {
        fill: #edf4d7;
      }

      .cls-5 {
        opacity: 0.49;
        mix-blend-mode: darken;
      }

      .cls-6 {
        fill: #fff;
      }
    </style>
  </defs>
  <title>Untitled-3 [Recovered]</title>
  <g class="cls-1">
    <g id="Layer_1" data-name="Layer 1">
      <g>
        <path class="cls-2" d="M481.69,544.5c14.53-44.79,29.43-90.16,44.28-134.84q5.43-16.34,10.89-32.66h32.31c3.67,8.82,7.33,17.8,10.87,26.68,18.29,46,34.87,93.35,49.29,140.82Z" transform="translate(-438 -186)"/>
        <path d="M568.83,377.5c3.64,8.73,7.25,17.6,10.74,26.37,18.21,45.76,34.72,92.89,49.08,140.13H482.38c14.46-44.58,29.29-89.72,44.07-134.18q5.37-16.17,10.77-32.32h31.61m.67-1h-33q-5.52,16.5-11,33Q503,477.17,481,545H630c-13.93-45.95-30.29-93.23-49.5-141.5q-5.43-13.65-11-27Z" transform="translate(-438 -186)"/>
      </g>
      <g>
        <rect class="cls-3" x="101.5" y="303.5" width="32" height="54"/>
        <path d="M571,490v53H540V490h31m1-1H539v55h33V489Z" transform="translate(-438 -186)"/>
      </g>
    </g>
    <g id="Layer_2" data-name="Layer 2">
      <g id="Layer_3" data-name="Layer 3">
        <g>
          <circle class="cls-4" cx="99.5" cy="158.5" r="18"/>
          <path d="M537.5,327A17.5,17.5,0,1,1,520,344.5,17.52,17.52,0,0,1,537.5,327m0-1A18.5,18.5,0,1,0,556,344.5,18.5,18.5,0,0,0,537.5,326Z" transform="translate(-438 -186)"/>
        </g>
        <g>
          <circle class="cls-4" cx="134.5" cy="179.5" r="18"/>
          <path d="M572.5,348A17.5,17.5,0,1,1,555,365.5,17.52,17.52,0,0,1,572.5,348m0-1A18.5,18.5,0,1,0,591,365.5,18.5,18.5,0,0,0,572.5,347Z" transform="translate(-438 -186)"/>
        </g>
        <g>
          <circle class="cls-4" cx="109.5" cy="171.5" r="18"/>
          <path d="M547.5,340A17.5,17.5,0,1,1,530,357.5,17.52,17.52,0,0,1,547.5,340m0-1A18.5,18.5,0,1,0,566,357.5,18.5,18.5,0,0,0,547.5,339Z" transform="translate(-438 -186)"/>
        </g>
        <g>
          <circle class="cls-4" cx="72.5" cy="171.5" r="18"/>
          <path d="M510.5,340A17.5,17.5,0,1,1,493,357.5,17.52,17.52,0,0,1,510.5,340m0-1A18.5,18.5,0,1,0,529,357.5,18.5,18.5,0,0,0,510.5,339Z" transform="translate(-438 -186)"/>
        </g>
        <g>
          <circle class="cls-4" cx="60.5" cy="197.5" r="18"/>
          <path d="M498.5,366A17.5,17.5,0,1,1,481,383.5,17.52,17.52,0,0,1,498.5,366m0-1A18.5,18.5,0,1,0,517,383.5,18.5,18.5,0,0,0,498.5,365Z" transform="translate(-438 -186)"/>
        </g>
        <g>
          <circle class="cls-4" cx="79.5" cy="208.5" r="18"/>
          <path d="M517.5,377A17.5,17.5,0,1,1,500,394.5,17.52,17.52,0,0,1,517.5,377m0-1A18.5,18.5,0,1,0,536,394.5,18.5,18.5,0,0,0,517.5,376Z" transform="translate(-438 -186)"/>
        </g>
        <g>
          <circle class="cls-4" cx="97.5" cy="212.5" r="18"/>
          <path d="M535.5,381A17.5,17.5,0,1,1,518,398.5,17.52,17.52,0,0,1,535.5,381m0-1A18.5,18.5,0,1,0,554,398.5,18.5,18.5,0,0,0,535.5,380Z" transform="translate(-438 -186)"/>
        </g>
        <g>
          <circle class="cls-4" cx="124.5" cy="212.5" r="18"/>
          <path d="M562.5,381A17.5,17.5,0,1,1,545,398.5,17.52,17.52,0,0,1,562.5,381m0-1A18.5,18.5,0,1,0,581,398.5,18.5,18.5,0,0,0,562.5,380Z" transform="translate(-438 -186)"/>
        </g>
        <g>
          <circle class="cls-4" cx="145.5" cy="197.5" r="18"/>
          <path d="M583.5,366A17.5,17.5,0,1,1,566,383.5,17.52,17.52,0,0,1,583.5,366m0-1A18.5,18.5,0,1,0,602,383.5,18.5,18.5,0,0,0,583.5,365Z" transform="translate(-438 -186)"/>
        </g>
        <g>
          <circle class="cls-4" cx="210.5" cy="146.5" r="18"/>
          <path d="M648.5,315A17.5,17.5,0,1,1,631,332.5,17.52,17.52,0,0,1,648.5,315m0-1A18.5,18.5,0,1,0,667,332.5,18.5,18.5,0,0,0,648.5,314Z" transform="translate(-438 -186)"/>
        </g>
        <g>
          <circle class="cls-4" cx="159.5" cy="203.5" r="18"/>
          <path d="M597.5,372A17.5,17.5,0,1,1,580,389.5,17.52,17.52,0,0,1,597.5,372m0-1A18.5,18.5,0,1,0,616,389.5,18.5,18.5,0,0,0,597.5,371Z" transform="translate(-438 -186)"/>
        </g>
        <g>
          <circle class="cls-4" cx="128.5" cy="157.5" r="18"/>
          <path d="M566.5,326A17.5,17.5,0,1,1,549,343.5,17.52,17.52,0,0,1,566.5,326m0-1A18.5,18.5,0,1,0,585,343.5,18.5,18.5,0,0,0,566.5,325Z" transform="translate(-438 -186)"/>
        </g>
        <g>
          <path class="cls-4" d="M579.48,416.5a18,18,0,0,1-1.15-36c.4,0,.79,0,1.19,0a18,18,0,0,1,1.15,36C580.27,416.49,579.88,416.5,579.48,416.5Z" transform="translate(-438 -186)"/>
          <path d="M579.52,380v1A17.53,17.53,0,0,1,597,397.36,17.5,17.5,0,0,1,580.64,416c-.38,0-.77,0-1.16,0A17.53,17.53,0,0,1,562,399.64,17.5,17.5,0,0,1,578.36,381c.38,0,.77,0,1.16,0v-1m0,0c-.41,0-.81,0-1.23,0a18.5,18.5,0,0,0,1.19,37c.41,0,.81,0,1.23,0a18.5,18.5,0,0,0-1.19-37Z" transform="translate(-438 -186)"/>
        </g>
        <g>
          <circle class="cls-4" cx="28.5" cy="158.5" r="18"/>
          <path d="M466.5,327A17.5,17.5,0,1,1,449,344.5,17.52,17.52,0,0,1,466.5,327m0-1A18.5,18.5,0,1,0,485,344.5,18.5,18.5,0,0,0,466.5,326Z" transform="translate(-438 -186)"/>
        </g>
        <g>
          <circle class="cls-4" cx="103.5" cy="136.5" r="18"/>
          <path d="M541.5,305A17.5,17.5,0,1,1,524,322.5,17.52,17.52,0,0,1,541.5,305m0-1A18.5,18.5,0,1,0,560,322.5,18.5,18.5,0,0,0,541.5,304Z" transform="translate(-438 -186)"/>
        </g>
        <g>
          <circle class="cls-4" cx="65.5" cy="125.5" r="18"/>
          <path d="M503.5,294A17.5,17.5,0,1,1,486,311.5,17.52,17.52,0,0,1,503.5,294m0-1A18.5,18.5,0,1,0,522,311.5,18.5,18.5,0,0,0,503.5,293Z" transform="translate(-438 -186)"/>
        </g>
        <g>
          <circle class="cls-4" cx="18.5" cy="125.5" r="18"/>
          <path d="M456.5,294A17.5,17.5,0,1,1,439,311.5,17.52,17.52,0,0,1,456.5,294m0-1A18.5,18.5,0,1,0,475,311.5,18.5,18.5,0,0,0,456.5,293Z" transform="translate(-438 -186)"/>
        </g>
        <g>
          <circle class="cls-4" cx="192.5" cy="139.5" r="18"/>
          <path d="M630.5,308A17.5,17.5,0,1,1,613,325.5,17.52,17.52,0,0,1,630.5,308m0-1A18.5,18.5,0,1,0,649,325.5,18.5,18.5,0,0,0,630.5,307Z" transform="translate(-438 -186)"/>
        </g>
        <g>
          <circle class="cls-4" cx="134.5" cy="141.5" r="18"/>
          <path d="M572.5,310A17.5,17.5,0,1,1,555,327.5,17.52,17.52,0,0,1,572.5,310m0-1A18.5,18.5,0,1,0,591,327.5,18.5,18.5,0,0,0,572.5,309Z" transform="translate(-438 -186)"/>
        </g>
        <g>
          <circle class="cls-4" cx="84.5" cy="141.5" r="18"/>
          <path d="M522.5,310A17.5,17.5,0,1,1,505,327.5,17.52,17.52,0,0,1,522.5,310m0-1A18.5,18.5,0,1,0,541,327.5,18.5,18.5,0,0,0,522.5,309Z" transform="translate(-438 -186)"/>
        </g>
        <g>
          <circle class="cls-4" cx="42.5" cy="136.5" r="18"/>
          <path d="M480.5,305A17.5,17.5,0,1,1,463,322.5,17.52,17.52,0,0,1,480.5,305m0-1A18.5,18.5,0,1,0,499,322.5,18.5,18.5,0,0,0,480.5,304Z" transform="translate(-438 -186)"/>
        </g>
        <g>
          <circle class="cls-4" cx="42.5" cy="179.5" r="18"/>
          <path d="M480.5,348A17.5,17.5,0,1,1,463,365.5,17.52,17.52,0,0,1,480.5,348m0-1A18.5,18.5,0,1,0,499,365.5,18.5,18.5,0,0,0,480.5,347Z" transform="translate(-438 -186)"/>
        </g>
        <g>
          <circle class="cls-4" cx="61.5" cy="146.5" r="18"/>
          <path d="M499.5,315A17.5,17.5,0,1,1,482,332.5,17.52,17.52,0,0,1,499.5,315m0-1A18.5,18.5,0,1,0,518,332.5,18.5,18.5,0,0,0,499.5,314Z" transform="translate(-438 -186)"/>
        </g>
        <g>
          <circle class="cls-4" cx="90.5" cy="183.5" r="18"/>
          <path d="M528.5,352A17.5,17.5,0,1,1,511,369.5,17.52,17.52,0,0,1,528.5,352m0-1A18.5,18.5,0,1,0,547,369.5,18.5,18.5,0,0,0,528.5,351Z" transform="translate(-438 -186)"/>
        </g>
        <g>
          <circle class="cls-4" cx="117.5" cy="190.5" r="18"/>
          <path d="M555.5,359A17.5,17.5,0,1,1,538,376.5,17.52,17.52,0,0,1,555.5,359m0-1A18.5,18.5,0,1,0,574,376.5,18.5,18.5,0,0,0,555.5,358Z" transform="translate(-438 -186)"/>
        </g>
        <g>
          <circle class="cls-4" cx="159.5" cy="152.5" r="18"/>
          <path d="M597.5,321A17.5,17.5,0,1,1,580,338.5,17.52,17.52,0,0,1,597.5,321m0-1A18.5,18.5,0,1,0,616,338.5,18.5,18.5,0,0,0,597.5,320Z" transform="translate(-438 -186)"/>
        </g>
        <g>
          <circle class="cls-4" cx="182.5" cy="190.5" r="18"/>
          <path d="M620.5,359A17.5,17.5,0,1,1,603,376.5,17.52,17.52,0,0,1,620.5,359m0-1A18.5,18.5,0,1,0,639,376.5,18.5,18.5,0,0,0,620.5,358Z" transform="translate(-438 -186)"/>
        </g>
        <g>
          <circle class="cls-4" cx="182.5" cy="160.5" r="18"/>
          <path d="M620.5,329A17.5,17.5,0,1,1,603,346.5,17.52,17.52,0,0,1,620.5,329m0-1A18.5,18.5,0,1,0,639,346.5,18.5,18.5,0,0,0,620.5,328Z" transform="translate(-438 -186)"/>
        </g>
        <g>
          <circle class="cls-4" cx="200.5" cy="171.5" r="18"/>
          <path d="M638.5,340A17.5,17.5,0,1,1,621,357.5,17.52,17.52,0,0,1,638.5,340m0-1A18.5,18.5,0,1,0,657,357.5,18.5,18.5,0,0,0,638.5,339Z" transform="translate(-438 -186)"/>
        </g>
        <g>
          <circle class="cls-4" cx="164.5" cy="178.5" r="18"/>
          <path d="M602.5,347A17.5,17.5,0,1,1,585,364.5,17.52,17.52,0,0,1,602.5,347m0-1A18.5,18.5,0,1,0,621,364.5,18.5,18.5,0,0,0,602.5,346Z" transform="translate(-438 -186)"/>
        </g>
      </g>
      <g class="cls-5">
        <circle class="cls-6" cx="117.5" cy="117.5" r="117"/>
        <path d="M555.5,187a116.49,116.49,0,1,1-82.38,34.12A115.76,115.76,0,0,1,555.5,187m0-1A117.5,117.5,0,1,0,673,303.5,117.5,117.5,0,0,0,555.5,186Z" transform="translate(-438 -186)"/>
      </g>
    </g>
  </g>
</svg>
