<?xml version="1.0" encoding="utf-8"?>
<!-- Generator: Adobe Illustrator 22.1.0, SVG Export Plug-In . SVG Version: 6.00 Build 0)  -->
<svg version="1.1" id="Lag_1" xmlns="http://www.w3.org/2000/svg" xmlns:xlink="http://www.w3.org/1999/xlink" x="0px" y="0px"
	 viewBox="0 0 166 156" style="enable-background:new 0 0 166 156;" xml:space="preserve">
<style type="text/css">
	.st0{fill:#EAEAEA;}
	.st1{fill:none;stroke:#000000;stroke-width:0.25;stroke-miterlimit:10;}
	.st2{font-family:'MyriadPro-Regular';}
	.st3{font-size:12px;}
	.st4{fill:#FEB700;}
</style>
<g>
	<path class="st0" d="M76.4,126.4c-2.7,0-5.2-0.9-7.3-2.5l-28.4-22.1c-2.5-1.9-4.1-4.7-4.5-7.9c-0.4-3.2,0.5-6.3,2.4-8.8l49.7-64
		c2.3-2.9,5.7-4.6,9.4-4.6c2.7,0,5.2,0.9,7.3,2.5l28.4,22.1c2.5,1.9,4.1,4.7,4.5,7.9c0.4,3.2-0.5,6.3-2.4,8.8l-49.7,64
		C83.5,124.7,80.1,126.4,76.4,126.4z"/>
	<path d="M97.6,16.7L97.6,16.7c2.6,0,5.1,0.8,7.2,2.5l28.4,22.1c5.1,4,6,11.4,2.1,16.5l-49.7,64c-2.2,2.9-5.6,4.5-9.3,4.5
		c-2.6,0-5.1-0.8-7.2-2.5l-28.4-22.1c-5.1-4-6-11.4-2.1-16.5l49.7-64C90.6,18.4,94,16.7,97.6,16.7 M97.6,16.5
		c-3.6,0-7.1,1.6-9.5,4.6l-49.7,64c-4,5.2-3.1,12.8,2.1,16.8L69,124c2.2,1.7,4.8,2.5,7.3,2.5c3.6,0,7.1-1.6,9.5-4.6l49.7-64
		c4-5.2,3.1-12.8-2.1-16.8L105,19C102.8,17.3,100.2,16.5,97.6,16.5L97.6,16.5z"/>
</g>
<g>
	<line class="st1" x1="91.7" y1="32.8" x2="124.9" y2="58.5"/>
</g>
<g>
	<line class="st1" x1="81.3" y1="46.2" x2="114.5" y2="72"/>
</g>
<g>
	<line class="st1" x1="70.3" y1="60.4" x2="103.5" y2="86.2"/>
</g>
<g>
	<line class="st1" x1="59.9" y1="73.8" x2="93" y2="99.6"/>
</g>
<g>
	<line class="st1" x1="50" y1="86.5" x2="83.2" y2="112.2"/>
</g>
<line class="st1" x1="124.8" y1="40.7" x2="65.9" y2="116.6"/>
<line class="st1" x1="110.6" y1="29.7" x2="51.7" y2="105.5"/>
<text transform="matrix(0.7898 0.6133 -0.6133 0.7898 92.8575 29.3092)" class="st2 st3">12</text>
<text transform="matrix(0.7898 0.6133 -0.6133 0.7898 106.2847 39.7354)" class="st2 st3">54</text>
<text transform="matrix(0.7898 0.6133 -0.6133 0.7898 118.9219 49.5484)" class="st2 st3">03</text>
<text transform="matrix(0.7898 0.6133 -0.6133 0.7898 109.109 62.1859)" class="st2 st3">49</text>
<text transform="matrix(0.7898 0.6133 -0.6133 0.7898 98.6827 75.6131)" class="st2 st3">17</text>
<text transform="matrix(0.7898 0.6133 -0.6133 0.7898 86.0455 65.8001)" class="st2 st3">36</text>
<text transform="matrix(0.7898 0.6133 -0.6133 0.7898 96.4717 52.3729)" class="st2 st3">63</text>
<text transform="matrix(0.7898 0.6133 -0.6133 0.7898 83.0445 41.9466)" class="st2 st3">73</text>
<text transform="matrix(0.7898 0.6133 -0.6133 0.7898 72.6182 55.3739)" class="st2 st3">88</text>
<text transform="matrix(0.7898 0.6133 -0.6133 0.7898 62.192 68.8014)" class="st2 st3">09</text>
<text transform="matrix(0.7898 0.6133 -0.6133 0.7898 75.6192 79.2276)" class="st2 st3">27</text>
<text transform="matrix(0.7898 0.6133 -0.6133 0.7898 88.2564 89.0406)" class="st2 st3">68</text>
<text transform="matrix(0.7898 0.6133 -0.6133 0.7898 77.8301 102.4679)" class="st2 st3">43</text>
<text transform="matrix(0.7898 0.6133 -0.6133 0.7898 65.1929 92.6549)" class="st2 st3">96</text>
<text transform="matrix(0.7898 0.6133 -0.6133 0.7898 51.7657 82.2286)" class="st2 st3">57</text>
<text transform="matrix(0.7898 0.6133 -0.6133 0.7898 41.9527 94.8661)" class="st2 st3">22</text>
<text transform="matrix(0.7898 0.6133 -0.6133 0.7898 55.38 105.2923)" class="st2 st3">74</text>
<text transform="matrix(0.7898 0.6133 -0.6133 0.7898 68.0172 115.1053)" class="st2 st3">07</text>
<g>
	<path class="st0" d="M36,117.9c-6.5,0-11.9-5.3-11.9-11.9V25c0-6.5,5.3-11.9,11.9-11.9h36c6.5,0,11.9,5.3,11.9,11.9v81
		c0,6.5-5.3,11.9-11.9,11.9H36z"/>
	<path d="M72,13.3c6.5,0,11.8,5.3,11.8,11.8v81c0,6.5-5.3,11.8-11.8,11.8H36c-6.5,0-11.8-5.3-11.8-11.8V25c0-6.5,5.3-11.8,11.8-11.8
		H72 M72,13H36c-6.6,0-12,5.4-12,12v81c0,6.6,5.4,12,12,12h36c6.6,0,12-5.4,12-12V25C84,18.4,78.6,13,72,13L72,13z"/>
</g>
<g>
	<line class="st1" x1="34" y1="32" x2="76" y2="32"/>
</g>
<g>
	<line class="st1" x1="34" y1="49" x2="76" y2="49"/>
</g>
<g>
	<line class="st1" x1="34" y1="67" x2="76" y2="67"/>
</g>
<g>
	<line class="st1" x1="34" y1="84" x2="76" y2="84"/>
</g>
<g>
	<line class="st1" x1="34" y1="100" x2="76" y2="100"/>
</g>
<line class="st1" x1="65" y1="18" x2="65" y2="114"/>
<line class="st1" x1="47" y1="18" x2="47" y2="114"/>
<text transform="matrix(1 0 0 1 32.75 28.5835)" class="st2 st3">12</text>
<text transform="matrix(1 0 0 1 49.75 28.5835)" class="st2 st3">54</text>
<text transform="matrix(1 0 0 1 65.75 28.5835)" class="st2 st3">03</text>
<text transform="matrix(1 0 0 1 65.75 44.5835)" class="st2 st3">49</text>
<text transform="matrix(1 0 0 1 65.75 61.5835)" class="st2 st3">17</text>
<text transform="matrix(1 0 0 1 49.75 61.5835)" class="st2 st3">36</text>
<text transform="matrix(1 0 0 1 49.75 44.5835)" class="st2 st3">63</text>
<text transform="matrix(1 0 0 1 32.75 44.5835)" class="st2 st3">73</text>
<text transform="matrix(1 0 0 1 32.75 61.5835)" class="st2 st3">88</text>
<text transform="matrix(1 0 0 1 32.75 78.5835)" class="st2 st3">09</text>
<text transform="matrix(1 0 0 1 49.75 78.5835)" class="st2 st3">27</text>
<text transform="matrix(1 0 0 1 65.75 78.5835)" class="st2 st3">68</text>
<text transform="matrix(1 0 0 1 65.75 95.5835)" class="st2 st3">43</text>
<text transform="matrix(1 0 0 1 49.75 95.5835)" class="st2 st3">96</text>
<text transform="matrix(1 0 0 1 32.75 95.5835)" class="st2 st3">57</text>
<text transform="matrix(1 0 0 1 32.75 111.5835)" class="st2 st3">22</text>
<text transform="matrix(1 0 0 1 49.75 111.5835)" class="st2 st3">74</text>
<text transform="matrix(1 0 0 1 65.75 111.5835)" class="st2 st3">07</text>
<path class="st4" d="M106.6,95.7H61.4c-2.4,0-4.4-2-4.4-4.4v-3.5c0-2.4,2-4.4,4.4-4.4h45.3c2.4,0,4.4,2,4.4,4.4v3.5
	C111,93.8,109,95.7,106.6,95.7z"/>
<path class="st4" d="M77.9,113V67c0-2.2,1.8-4,4-4h4.3c2.2,0,4,1.8,4,4v46c0,2.2-1.8,4-4,4h-4.3C79.7,117,77.9,115.2,77.9,113z"/>
</svg>
