<svg id="324aa855-d78d-4582-8288-6ec28164cbdc" data-name="&lt;Layer&gt;" xmlns="http://www.w3.org/2000/svg" viewBox="0 0 105.86 113.42">
  <defs>
    <style>
      .\39 f75b379-18dc-4626-8f0f-90b81f0ca07b {
        fill: #feb700;
      }

      .\32 bfeba7d-bdc8-4818-ba12-5556b0569bc1 {
        fill: #004b32;
      }
    </style>
  </defs>
  <title>Te____Fr</title>
  <g>
    <path class="9f75b379-18dc-4626-8f0f-90b81f0ca07b" d="M524.37,273.23,513.86,214a5.81,5.81,0,0,0-6.94-4.94l-62,10.84a9,9,0,0,0-4.67,2.34s-15.73,14.9-18,17.25a11,11,0,0,0-3.08,10l12,67.8a6.15,6.15,0,0,0,7.12,5c2.58-.39,63.69-11.14,66.88-11.8s6.48-2.85,8.8-7.21L523.32,283C525,279.13,525.12,278.24,524.37,273.23Z" transform="translate(-418.96 -208.97)"/>
    <path class="2bfeba7d-bdc8-4818-ba12-5556b0569bc1" d="M491.07,221.81c-1.73,1.41-6.63,3.05-11,3.67s-6.46,0-4.73-1.43,6.64-3.05,11-3.66S492.8,220.41,491.07,221.81Z" transform="translate(-418.96 -208.97)"/>
    <polygon class="2bfeba7d-bdc8-4818-ba12-5556b0569bc1" points="62.13 10.25 48.34 14.5 38.41 14.45 52.12 10.2 62.13 10.25"/>
    <polygon class="2bfeba7d-bdc8-4818-ba12-5556b0569bc1" points="25.17 13.5 38.8 11.1 34.63 15.45 20.8 17.67 25.17 13.5"/>
    <polygon class="2bfeba7d-bdc8-4818-ba12-5556b0569bc1" points="19.47 106.26 16.82 91.24 31.85 88.58 34.49 103.62 19.47 106.26"/>
    <polygon class="2bfeba7d-bdc8-4818-ba12-5556b0569bc1" points="31.53 84.18 21.72 72.5 26.91 58.19 36.73 69.88 31.53 84.18"/>
    <path class="2bfeba7d-bdc8-4818-ba12-5556b0569bc1" d="M464.59,268.9a8.7,8.7,0,1,1,7.07-10.08A8.71,8.71,0,0,1,464.59,268.9Z" transform="translate(-418.96 -208.97)"/>
    <polygon class="2bfeba7d-bdc8-4818-ba12-5556b0569bc1" points="65.14 49.56 53.35 35.54 71.38 32.36 65.14 49.56"/>
    <polygon class="2bfeba7d-bdc8-4818-ba12-5556b0569bc1" points="71.58 20.56 58.16 20.81 75.46 15.61 71.58 20.56"/>
    <polygon class="2bfeba7d-bdc8-4818-ba12-5556b0569bc1" points="93.08 11.76 93.78 27.42 89.53 16.79 93.08 11.76"/>
    <path class="2bfeba7d-bdc8-4818-ba12-5556b0569bc1" d="M507.29,234.32c.88-1.34,2.2,1.05,2.95,5.33s.67,8.85-.22,10.2-2.19-1-2.94-5.32S506.42,235.67,507.29,234.32Z" transform="translate(-418.96 -208.97)"/>
    <polygon class="2bfeba7d-bdc8-4818-ba12-5556b0569bc1" points="88.26 42.94 91.94 53.07 92.65 67.84 88.95 57.81 88.26 42.94"/>
    <polygon class="2bfeba7d-bdc8-4818-ba12-5556b0569bc1" points="92.82 90.38 90.29 76.05 93.01 70.59 95.5 84.72 92.82 90.38"/>
  </g>
</svg>
