<svg xmlns="http://www.w3.org/2000/svg" viewBox="0 0 244.36 244.36">
  <defs>
    <style>
      .\38 963863c-9269-4739-bf98-b4f88ebcbbdf {
        fill: #004b32;
      }

      .\30 62a6722-c19c-418b-a68d-352c1f6634e1 {
        fill: #336f5b;
      }
    </style>
  </defs>
  <title>Ds__G_Fr [Konverteret]</title>
  <g>
    <rect class="8963863c-9269-4739-bf98-b4f88ebcbbdf" width="244.36" height="244.36"/>
    <g>
      <g>
        <g>
          <polygon class="062a6722-c19c-418b-a68d-352c1f6634e1" points="112.11 152.85 112.12 152.85 112.1 152.85 105.75 141.86 99.42 152.85 99.41 152.85 99.42 152.85 99.41 152.87 99.42 152.87 105.79 163.83 112.1 152.87 112.12 152.87 112.11 152.85"/>
          <rect class="062a6722-c19c-418b-a68d-352c1f6634e1" x="105.72" y="124.49" width="12.71" height="12.71"/>
          <path class="062a6722-c19c-418b-a68d-352c1f6634e1" d="M390.22,336.76a7.25,7.25,0,1,0,7.23,7.25A7.25,7.25,0,0,0,390.22,336.76Z" transform="translate(-299.7 -176.74)"/>
          <polygon class="062a6722-c19c-418b-a68d-352c1f6634e1" points="64.31 178.6 79.54 178.6 71.9 165.42 64.31 178.6"/>
        </g>
        <g>
          <polygon class="062a6722-c19c-418b-a68d-352c1f6634e1" points="83.36 210.76 83.36 210.75 83.35 210.75 76.98 199.79 70.67 210.75 70.66 210.75 70.67 210.76 70.66 210.77 70.67 210.77 77.03 221.75 83.35 210.77 83.36 210.77 83.36 210.76"/>
          <rect class="062a6722-c19c-418b-a68d-352c1f6634e1" x="64.35" y="226.42" width="12.7" height="12.71"/>
          <path class="062a6722-c19c-418b-a68d-352c1f6634e1" d="M392,380.34a7.25,7.25,0,1,0-7.23-7.26A7.26,7.26,0,0,0,392,380.34Z" transform="translate(-299.7 -176.74)"/>
          <polygon class="062a6722-c19c-418b-a68d-352c1f6634e1" points="118.46 185.01 103.23 185.01 110.88 198.2 118.46 185.01"/>
        </g>
        <g>
          <polygon class="062a6722-c19c-418b-a68d-352c1f6634e1" points="143.84 150.27 143.84 150.26 143.83 150.26 137.47 139.3 131.16 150.26 131.14 150.26 131.15 150.27 131.14 150.28 131.16 150.28 137.51 161.26 143.83 150.28 143.84 150.28 143.84 150.27"/>
          <rect class="062a6722-c19c-418b-a68d-352c1f6634e1" x="124.83" y="165.93" width="12.7" height="12.71"/>
          <path class="062a6722-c19c-418b-a68d-352c1f6634e1" d="M452.43,319.85a7.25,7.25,0,1,0-7.23-7.26A7.26,7.26,0,0,0,452.43,319.85Z" transform="translate(-299.7 -176.74)"/>
          <polygon class="062a6722-c19c-418b-a68d-352c1f6634e1" points="178.95 124.52 163.72 124.52 171.36 137.71 178.95 124.52"/>
        </g>
        <g>
          <polygon class="062a6722-c19c-418b-a68d-352c1f6634e1" points="172.59 213.32 172.6 213.31 172.58 213.31 166.23 202.33 159.91 213.31 159.89 213.31 159.9 213.32 159.89 213.34 159.91 213.34 166.28 224.3 172.58 213.34 172.6 213.34 172.59 213.32"/>
          <rect class="062a6722-c19c-418b-a68d-352c1f6634e1" x="166.2" y="184.96" width="12.71" height="12.71"/>
          <path class="062a6722-c19c-418b-a68d-352c1f6634e1" d="M450.71,397.23a7.24,7.24,0,1,0,7.23,7.26A7.25,7.25,0,0,0,450.71,397.23Z" transform="translate(-299.7 -176.74)"/>
          <polygon class="062a6722-c19c-418b-a68d-352c1f6634e1" points="124.78 239.07 140.02 239.07 132.38 225.88 124.78 239.07"/>
        </g>
        <g>
          <polygon class="062a6722-c19c-418b-a68d-352c1f6634e1" points="83.36 89.78 83.36 89.77 83.35 89.77 76.98 78.81 70.67 89.77 70.66 89.77 70.67 89.78 70.66 89.8 70.67 89.8 77.03 100.77 83.35 89.8 83.36 89.8 83.36 89.78"/>
          <rect class="062a6722-c19c-418b-a68d-352c1f6634e1" x="64.35" y="105.44" width="12.7" height="12.71"/>
          <path class="062a6722-c19c-418b-a68d-352c1f6634e1" d="M392,259.36a7.25,7.25,0,1,0-7.23-7.26A7.26,7.26,0,0,0,392,259.36Z" transform="translate(-299.7 -176.74)"/>
          <polygon class="062a6722-c19c-418b-a68d-352c1f6634e1" points="118.46 64.03 103.23 64.03 110.88 77.22 118.46 64.03"/>
          <polygon class="062a6722-c19c-418b-a68d-352c1f6634e1" points="172.59 92.35 172.6 92.34 172.58 92.34 166.23 81.36 159.91 92.34 159.89 92.34 159.9 92.35 159.89 92.37 159.91 92.37 166.28 103.33 172.58 92.37 172.6 92.37 172.59 92.35"/>
          <rect class="062a6722-c19c-418b-a68d-352c1f6634e1" x="166.2" y="63.99" width="12.71" height="12.7"/>
          <path class="062a6722-c19c-418b-a68d-352c1f6634e1" d="M450.71,276.26a7.24,7.24,0,1,0,7.23,7.26A7.25,7.25,0,0,0,450.71,276.26Z" transform="translate(-299.7 -176.74)"/>
        </g>
        <polygon class="062a6722-c19c-418b-a68d-352c1f6634e1" points="124.78 118.1 140.02 118.1 132.38 104.91 124.78 118.1"/>
        <g>
          <polygon class="062a6722-c19c-418b-a68d-352c1f6634e1" points="112.11 31.82 112.12 31.81 112.1 31.81 105.75 20.83 99.42 31.81 99.41 31.81 99.42 31.82 99.41 31.83 99.42 31.83 105.79 42.8 112.1 31.83 112.12 31.83 112.11 31.82"/>
          <rect class="062a6722-c19c-418b-a68d-352c1f6634e1" x="105.72" y="3.46" width="12.71" height="12.71"/>
          <path class="062a6722-c19c-418b-a68d-352c1f6634e1" d="M390.22,215.73a7.24,7.24,0,1,0,7.23,7.25A7.25,7.25,0,0,0,390.22,215.73Z" transform="translate(-299.7 -176.74)"/>
          <polygon class="062a6722-c19c-418b-a68d-352c1f6634e1" points="64.31 57.57 79.54 57.57 71.9 44.38 64.31 57.57"/>
        </g>
        <g>
          <polygon class="062a6722-c19c-418b-a68d-352c1f6634e1" points="143.84 29.23 143.84 29.22 143.83 29.22 137.47 18.26 131.16 29.22 131.14 29.22 131.15 29.23 131.14 29.25 131.16 29.25 137.51 40.23 143.83 29.25 143.84 29.25 143.84 29.23"/>
          <rect class="062a6722-c19c-418b-a68d-352c1f6634e1" x="124.83" y="44.89" width="12.7" height="12.71"/>
          <path class="062a6722-c19c-418b-a68d-352c1f6634e1" d="M452.43,198.81a7.24,7.24,0,1,0-7.23-7.25A7.25,7.25,0,0,0,452.43,198.81Z" transform="translate(-299.7 -176.74)"/>
          <polygon class="062a6722-c19c-418b-a68d-352c1f6634e1" points="178.95 3.48 163.72 3.48 171.36 16.68 178.95 3.48"/>
        </g>
      </g>
      <g>
        <g>
          <polygon class="062a6722-c19c-418b-a68d-352c1f6634e1" points="232.84 152.83 232.85 152.83 232.83 152.83 226.48 141.84 220.16 152.83 220.15 152.83 220.16 152.83 220.15 152.85 220.16 152.85 226.53 163.81 232.83 152.85 232.85 152.85 232.84 152.83"/>
          <rect class="062a6722-c19c-418b-a68d-352c1f6634e1" x="226.45" y="124.47" width="12.71" height="12.71"/>
          <path class="062a6722-c19c-418b-a68d-352c1f6634e1" d="M511,336.74a7.25,7.25,0,1,0,7.23,7.25A7.25,7.25,0,0,0,511,336.74Z" transform="translate(-299.7 -176.74)"/>
          <polygon class="062a6722-c19c-418b-a68d-352c1f6634e1" points="185.04 178.58 200.28 178.58 192.63 165.4 185.04 178.58"/>
        </g>
        <g>
          <polygon class="062a6722-c19c-418b-a68d-352c1f6634e1" points="204.09 210.74 204.1 210.73 204.09 210.73 197.72 199.77 191.41 210.73 191.39 210.73 191.4 210.74 191.39 210.75 191.41 210.75 197.76 221.73 204.09 210.75 204.1 210.75 204.09 210.74"/>
          <rect class="062a6722-c19c-418b-a68d-352c1f6634e1" x="185.09" y="226.4" width="12.7" height="12.71"/>
          <path class="062a6722-c19c-418b-a68d-352c1f6634e1" d="M512.68,380.32a7.25,7.25,0,1,0-7.23-7.26A7.26,7.26,0,0,0,512.68,380.32Z" transform="translate(-299.7 -176.74)"/>
          <polygon class="062a6722-c19c-418b-a68d-352c1f6634e1" points="239.2 184.99 223.97 184.99 231.61 198.18 239.2 184.99"/>
        </g>
        <g>
          <polygon class="062a6722-c19c-418b-a68d-352c1f6634e1" points="204.09 89.76 204.1 89.75 204.09 89.75 197.72 78.79 191.41 89.75 191.39 89.75 191.4 89.76 191.39 89.78 191.41 89.78 197.76 100.75 204.09 89.78 204.1 89.78 204.09 89.76"/>
          <rect class="062a6722-c19c-418b-a68d-352c1f6634e1" x="185.09" y="105.42" width="12.7" height="12.71"/>
          <path class="062a6722-c19c-418b-a68d-352c1f6634e1" d="M512.68,259.34a7.25,7.25,0,1,0-7.23-7.26A7.26,7.26,0,0,0,512.68,259.34Z" transform="translate(-299.7 -176.74)"/>
          <polygon class="062a6722-c19c-418b-a68d-352c1f6634e1" points="239.2 64.01 223.97 64.01 231.61 77.2 239.2 64.01"/>
        </g>
        <g>
          <g>
            <polygon class="062a6722-c19c-418b-a68d-352c1f6634e1" points="23.07 150.27 23.07 150.26 23.06 150.26 16.7 139.3 10.38 150.26 10.37 150.26 10.38 150.27 10.37 150.28 10.38 150.28 16.73 161.26 23.06 150.28 23.07 150.28 23.07 150.27"/>
            <rect class="062a6722-c19c-418b-a68d-352c1f6634e1" x="4.06" y="165.93" width="12.7" height="12.71"/>
            <path class="062a6722-c19c-418b-a68d-352c1f6634e1" d="M331.65,319.85a7.25,7.25,0,1,0-7.22-7.26A7.26,7.26,0,0,0,331.65,319.85Z" transform="translate(-299.7 -176.74)"/>
            <polygon class="062a6722-c19c-418b-a68d-352c1f6634e1" points="58.17 124.52 42.94 124.52 50.58 137.71 58.17 124.52"/>
          </g>
          <g>
            <polygon class="062a6722-c19c-418b-a68d-352c1f6634e1" points="51.82 213.32 51.83 213.31 51.81 213.31 45.45 202.33 39.13 213.31 39.12 213.31 39.13 213.32 39.12 213.34 39.13 213.34 45.5 224.3 51.81 213.34 51.83 213.34 51.82 213.32"/>
            <rect class="062a6722-c19c-418b-a68d-352c1f6634e1" x="45.43" y="184.96" width="12.7" height="12.71"/>
            <path class="062a6722-c19c-418b-a68d-352c1f6634e1" d="M329.94,397.23a7.24,7.24,0,1,0,7.23,7.26A7.26,7.26,0,0,0,329.94,397.23Z" transform="translate(-299.7 -176.74)"/>
            <polygon class="062a6722-c19c-418b-a68d-352c1f6634e1" points="4.01 239.07 19.25 239.07 11.6 225.88 4.01 239.07"/>
          </g>
          <g>
            <polygon class="062a6722-c19c-418b-a68d-352c1f6634e1" points="51.82 92.35 51.83 92.34 51.81 92.34 45.45 81.36 39.13 92.34 39.12 92.34 39.13 92.35 39.12 92.37 39.13 92.37 45.5 103.33 51.81 92.37 51.83 92.37 51.82 92.35"/>
            <rect class="062a6722-c19c-418b-a68d-352c1f6634e1" x="45.43" y="63.99" width="12.7" height="12.7"/>
            <path class="062a6722-c19c-418b-a68d-352c1f6634e1" d="M329.94,276.26a7.24,7.24,0,1,0,7.23,7.26A7.26,7.26,0,0,0,329.94,276.26Z" transform="translate(-299.7 -176.74)"/>
          </g>
          <polygon class="062a6722-c19c-418b-a68d-352c1f6634e1" points="4.01 118.1 19.25 118.1 11.6 104.91 4.01 118.1"/>
          <g>
            <polygon class="062a6722-c19c-418b-a68d-352c1f6634e1" points="23.07 29.23 23.07 29.22 23.06 29.22 16.7 18.26 10.38 29.22 10.37 29.22 10.38 29.23 10.37 29.25 10.38 29.25 16.73 40.23 23.06 29.25 23.07 29.25 23.07 29.23"/>
            <rect class="062a6722-c19c-418b-a68d-352c1f6634e1" x="4.06" y="44.89" width="12.7" height="12.71"/>
            <path class="062a6722-c19c-418b-a68d-352c1f6634e1" d="M331.65,198.81a7.24,7.24,0,1,0-7.22-7.25A7.26,7.26,0,0,0,331.65,198.81Z" transform="translate(-299.7 -176.74)"/>
            <polygon class="062a6722-c19c-418b-a68d-352c1f6634e1" points="58.17 3.48 42.94 3.48 50.58 16.68 58.17 3.48"/>
          </g>
        </g>
        <g>
          <polygon class="062a6722-c19c-418b-a68d-352c1f6634e1" points="232.84 31.8 232.85 31.79 232.83 31.79 226.48 20.81 220.16 31.79 220.15 31.79 220.16 31.8 220.15 31.81 220.16 31.81 226.53 42.78 232.83 31.81 232.85 31.81 232.84 31.8"/>
          <rect class="062a6722-c19c-418b-a68d-352c1f6634e1" x="226.45" y="3.44" width="12.71" height="12.71"/>
          <path class="062a6722-c19c-418b-a68d-352c1f6634e1" d="M511,215.71a7.24,7.24,0,1,0,7.23,7.25A7.24,7.24,0,0,0,511,215.71Z" transform="translate(-299.7 -176.74)"/>
          <polygon class="062a6722-c19c-418b-a68d-352c1f6634e1" points="185.04 57.55 200.28 57.55 192.63 44.36 185.04 57.55"/>
        </g>
      </g>
    </g>
  </g>
</svg>
