<svg xmlns="http://www.w3.org/2000/svg" viewBox="0 0 235.19 235.69">
  <defs>
    <style>
      .\39 92148d3-9591-4f75-9b13-e8618252b9a6 {
        fill: #fff;
      }
    </style>
  </defs>
  <title>danskespilBg4</title>
  <g>
    <g>
      <g>
        <polygon class="992148d3-9591-4f75-9b13-e8618252b9a6" points="108.1 149.42 108.11 149.41 108.09 149.41 101.74 138.43 95.41 149.41 95.4 149.41 95.41 149.42 95.4 149.43 95.41 149.43 101.78 160.4 108.09 149.43 108.11 149.43 108.1 149.42"/>
        <rect class="992148d3-9591-4f75-9b13-e8618252b9a6" x="101.71" y="121.06" width="12.71" height="12.71"/>
        <path class="992148d3-9591-4f75-9b13-e8618252b9a6" d="M390.22,336.76a7.25,7.25,0,1,0,7.23,7.25A7.25,7.25,0,0,0,390.22,336.76Z" transform="translate(-303.71 -180.18)"/>
        <polygon class="992148d3-9591-4f75-9b13-e8618252b9a6" points="60.3 175.17 75.53 175.17 67.89 161.98 60.3 175.17"/>
      </g>
      <g>
        <polygon class="992148d3-9591-4f75-9b13-e8618252b9a6" points="79.35 207.32 79.35 207.31 79.34 207.31 72.97 196.35 66.66 207.31 66.65 207.31 66.66 207.32 66.65 207.34 66.67 207.34 73.02 218.32 79.34 207.34 79.35 207.34 79.35 207.32"/>
        <rect class="992148d3-9591-4f75-9b13-e8618252b9a6" x="60.34" y="222.98" width="12.7" height="12.71"/>
        <path class="992148d3-9591-4f75-9b13-e8618252b9a6" d="M392,380.34a7.25,7.25,0,1,0-7.23-7.26A7.26,7.26,0,0,0,392,380.34Z" transform="translate(-303.71 -180.18)"/>
        <polygon class="992148d3-9591-4f75-9b13-e8618252b9a6" points="114.45 181.58 99.22 181.58 106.87 194.77 114.45 181.58"/>
      </g>
      <g>
        <polygon class="992148d3-9591-4f75-9b13-e8618252b9a6" points="139.83 146.83 139.83 146.82 139.82 146.82 133.46 135.86 127.15 146.82 127.13 146.82 127.14 146.83 127.13 146.84 127.15 146.84 133.5 157.82 139.82 146.84 139.83 146.84 139.83 146.83"/>
        <rect class="992148d3-9591-4f75-9b13-e8618252b9a6" x="120.82" y="162.49" width="12.7" height="12.71"/>
        <path class="992148d3-9591-4f75-9b13-e8618252b9a6" d="M452.43,319.85a7.25,7.25,0,1,0-7.23-7.26A7.26,7.26,0,0,0,452.43,319.85Z" transform="translate(-303.71 -180.18)"/>
        <polygon class="992148d3-9591-4f75-9b13-e8618252b9a6" points="174.94 121.08 159.71 121.08 167.35 134.28 174.94 121.08"/>
      </g>
      <g>
        <polygon class="992148d3-9591-4f75-9b13-e8618252b9a6" points="168.58 209.89 168.59 209.87 168.57 209.87 162.22 198.9 155.9 209.87 155.88 209.87 155.89 209.89 155.88 209.9 155.9 209.9 162.27 220.86 168.57 209.9 168.59 209.9 168.58 209.89"/>
        <rect class="992148d3-9591-4f75-9b13-e8618252b9a6" x="162.19" y="181.52" width="12.71" height="12.71"/>
        <path class="992148d3-9591-4f75-9b13-e8618252b9a6" d="M450.71,397.23a7.24,7.24,0,1,0,7.23,7.26A7.25,7.25,0,0,0,450.71,397.23Z" transform="translate(-303.71 -180.18)"/>
        <polygon class="992148d3-9591-4f75-9b13-e8618252b9a6" points="120.77 235.63 136.01 235.63 128.37 222.44 120.77 235.63"/>
      </g>
      <g>
        <polygon class="992148d3-9591-4f75-9b13-e8618252b9a6" points="79.35 86.35 79.35 86.34 79.34 86.34 72.97 75.37 66.67 86.34 66.65 86.34 66.66 86.35 66.65 86.36 66.67 86.36 73.02 97.33 79.34 86.36 79.35 86.36 79.35 86.35"/>
        <rect class="992148d3-9591-4f75-9b13-e8618252b9a6" x="60.34" y="102" width="12.7" height="12.71"/>
        <path class="992148d3-9591-4f75-9b13-e8618252b9a6" d="M392,259.36a7.25,7.25,0,1,0-7.23-7.26A7.26,7.26,0,0,0,392,259.36Z" transform="translate(-303.71 -180.18)"/>
        <polygon class="992148d3-9591-4f75-9b13-e8618252b9a6" points="114.45 60.6 99.22 60.6 106.87 73.79 114.45 60.6"/>
        <polygon class="992148d3-9591-4f75-9b13-e8618252b9a6" points="168.58 88.92 168.59 88.9 168.57 88.9 162.22 77.93 155.9 88.9 155.88 88.9 155.89 88.92 155.88 88.93 155.9 88.93 162.27 99.89 168.57 88.93 168.59 88.93 168.58 88.92"/>
        <rect class="992148d3-9591-4f75-9b13-e8618252b9a6" x="162.19" y="60.55" width="12.71" height="12.7"/>
        <path class="992148d3-9591-4f75-9b13-e8618252b9a6" d="M450.71,276.26a7.24,7.24,0,1,0,7.23,7.26A7.25,7.25,0,0,0,450.71,276.26Z" transform="translate(-303.71 -180.18)"/>
      </g>
      <polygon class="992148d3-9591-4f75-9b13-e8618252b9a6" points="120.77 114.66 136.01 114.66 128.37 101.47 120.77 114.66"/>
      <g>
        <polygon class="992148d3-9591-4f75-9b13-e8618252b9a6" points="108.1 28.38 108.11 28.38 108.09 28.38 101.74 17.39 95.41 28.38 95.4 28.38 95.41 28.38 95.4 28.39 95.41 28.39 101.78 39.36 108.09 28.39 108.11 28.39 108.1 28.38"/>
        <rect class="992148d3-9591-4f75-9b13-e8618252b9a6" x="101.71" y="0.02" width="12.71" height="12.71"/>
        <path class="992148d3-9591-4f75-9b13-e8618252b9a6" d="M390.22,215.73a7.24,7.24,0,1,0,7.23,7.25A7.25,7.25,0,0,0,390.22,215.73Z" transform="translate(-303.71 -180.18)"/>
        <polygon class="992148d3-9591-4f75-9b13-e8618252b9a6" points="60.3 54.13 75.53 54.13 67.89 40.94 60.3 54.13"/>
      </g>
      <g>
        <polygon class="992148d3-9591-4f75-9b13-e8618252b9a6" points="139.83 25.8 139.83 25.79 139.82 25.79 133.46 14.82 127.15 25.79 127.13 25.79 127.14 25.8 127.13 25.81 127.15 25.81 133.5 36.79 139.82 25.81 139.83 25.81 139.83 25.8"/>
        <rect class="992148d3-9591-4f75-9b13-e8618252b9a6" x="120.82" y="41.46" width="12.7" height="12.71"/>
        <path class="992148d3-9591-4f75-9b13-e8618252b9a6" d="M452.43,198.81a7.24,7.24,0,1,0-7.23-7.25A7.25,7.25,0,0,0,452.43,198.81Z" transform="translate(-303.71 -180.18)"/>
        <polygon class="992148d3-9591-4f75-9b13-e8618252b9a6" points="174.94 0.05 159.71 0.05 167.35 13.24 174.94 0.05"/>
      </g>
    </g>
    <g>
      <g>
        <polygon class="992148d3-9591-4f75-9b13-e8618252b9a6" points="228.84 149.4 228.84 149.39 228.82 149.39 222.47 138.41 216.15 149.39 216.13 149.39 216.15 149.4 216.13 149.41 216.15 149.41 222.52 160.38 228.82 149.41 228.84 149.41 228.84 149.4"/>
        <rect class="992148d3-9591-4f75-9b13-e8618252b9a6" x="222.44" y="121.04" width="12.71" height="12.71"/>
        <path class="992148d3-9591-4f75-9b13-e8618252b9a6" d="M511,336.74a7.25,7.25,0,1,0,7.23,7.25A7.25,7.25,0,0,0,511,336.74Z" transform="translate(-303.71 -180.18)"/>
        <polygon class="992148d3-9591-4f75-9b13-e8618252b9a6" points="181.03 175.15 196.27 175.15 188.62 161.96 181.03 175.15"/>
      </g>
      <g>
        <polygon class="992148d3-9591-4f75-9b13-e8618252b9a6" points="200.08 207.31 200.09 207.29 200.08 207.29 193.71 196.33 187.4 207.29 187.38 207.29 187.39 207.31 187.38 207.32 187.4 207.32 193.75 218.3 200.08 207.32 200.09 207.32 200.08 207.31"/>
        <rect class="992148d3-9591-4f75-9b13-e8618252b9a6" x="181.08" y="222.96" width="12.7" height="12.71"/>
        <path class="992148d3-9591-4f75-9b13-e8618252b9a6" d="M512.68,380.32a7.25,7.25,0,1,0-7.23-7.26A7.26,7.26,0,0,0,512.68,380.32Z" transform="translate(-303.71 -180.18)"/>
        <polygon class="992148d3-9591-4f75-9b13-e8618252b9a6" points="235.19 181.56 219.96 181.56 227.6 194.75 235.19 181.56"/>
      </g>
      <g>
        <polygon class="992148d3-9591-4f75-9b13-e8618252b9a6" points="200.08 86.33 200.09 86.31 200.08 86.31 193.71 75.35 187.4 86.31 187.38 86.31 187.39 86.33 187.38 86.34 187.4 86.34 193.75 97.31 200.08 86.34 200.09 86.34 200.08 86.33"/>
        <rect class="992148d3-9591-4f75-9b13-e8618252b9a6" x="181.08" y="101.98" width="12.7" height="12.71"/>
        <path class="992148d3-9591-4f75-9b13-e8618252b9a6" d="M512.68,259.34a7.25,7.25,0,1,0-7.23-7.26A7.26,7.26,0,0,0,512.68,259.34Z" transform="translate(-303.71 -180.18)"/>
        <polygon class="992148d3-9591-4f75-9b13-e8618252b9a6" points="235.19 60.58 219.96 60.58 227.6 73.77 235.19 60.58"/>
      </g>
      <g>
        <g>
          <polygon class="992148d3-9591-4f75-9b13-e8618252b9a6" points="19.06 146.83 19.06 146.82 19.05 146.82 12.69 135.86 6.37 146.82 6.36 146.82 6.37 146.83 6.36 146.84 6.37 146.84 12.73 157.82 19.05 146.84 19.06 146.84 19.06 146.83"/>
          <rect class="992148d3-9591-4f75-9b13-e8618252b9a6" x="0.05" y="162.49" width="12.7" height="12.71"/>
          <path class="992148d3-9591-4f75-9b13-e8618252b9a6" d="M331.65,319.85a7.25,7.25,0,1,0-7.22-7.26A7.26,7.26,0,0,0,331.65,319.85Z" transform="translate(-303.71 -180.18)"/>
          <polygon class="992148d3-9591-4f75-9b13-e8618252b9a6" points="54.16 121.08 38.93 121.08 46.57 134.28 54.16 121.08"/>
        </g>
        <g>
          <polygon class="992148d3-9591-4f75-9b13-e8618252b9a6" points="47.81 209.89 47.82 209.87 47.8 209.87 41.45 198.9 35.12 209.87 35.11 209.87 35.12 209.89 35.11 209.9 35.12 209.9 41.49 220.87 47.8 209.9 47.82 209.9 47.81 209.89"/>
          <rect class="992148d3-9591-4f75-9b13-e8618252b9a6" x="41.42" y="181.52" width="12.7" height="12.71"/>
          <path class="992148d3-9591-4f75-9b13-e8618252b9a6" d="M329.94,397.23a7.24,7.24,0,1,0,7.23,7.26A7.26,7.26,0,0,0,329.94,397.23Z" transform="translate(-303.71 -180.18)"/>
          <polygon class="992148d3-9591-4f75-9b13-e8618252b9a6" points="0 235.63 15.24 235.63 7.59 222.44 0 235.63"/>
        </g>
        <g>
          <polygon class="992148d3-9591-4f75-9b13-e8618252b9a6" points="47.81 88.92 47.82 88.9 47.8 88.9 41.45 77.93 35.12 88.9 35.11 88.9 35.12 88.92 35.11 88.93 35.12 88.93 41.49 99.89 47.8 88.93 47.82 88.93 47.81 88.92"/>
          <rect class="992148d3-9591-4f75-9b13-e8618252b9a6" x="41.42" y="60.55" width="12.7" height="12.7"/>
          <path class="992148d3-9591-4f75-9b13-e8618252b9a6" d="M329.94,276.26a7.24,7.24,0,1,0,7.23,7.26A7.26,7.26,0,0,0,329.94,276.26Z" transform="translate(-303.71 -180.18)"/>
        </g>
        <polygon class="992148d3-9591-4f75-9b13-e8618252b9a6" points="0 114.66 15.24 114.66 7.59 101.47 0 114.66"/>
        <g>
          <polygon class="992148d3-9591-4f75-9b13-e8618252b9a6" points="19.06 25.8 19.06 25.79 19.05 25.79 12.69 14.82 6.37 25.79 6.36 25.79 6.37 25.8 6.36 25.81 6.37 25.81 12.73 36.79 19.05 25.81 19.06 25.81 19.06 25.8"/>
          <rect class="992148d3-9591-4f75-9b13-e8618252b9a6" x="0.05" y="41.46" width="12.7" height="12.71"/>
          <path class="992148d3-9591-4f75-9b13-e8618252b9a6" d="M331.65,198.81a7.24,7.24,0,1,0-7.22-7.25A7.26,7.26,0,0,0,331.65,198.81Z" transform="translate(-303.71 -180.18)"/>
          <polygon class="992148d3-9591-4f75-9b13-e8618252b9a6" points="54.16 0.05 38.93 0.05 46.57 13.24 54.16 0.05"/>
        </g>
      </g>
      <g>
        <polygon class="992148d3-9591-4f75-9b13-e8618252b9a6" points="228.84 28.36 228.84 28.36 228.82 28.36 222.47 17.37 216.15 28.36 216.13 28.36 216.15 28.36 216.13 28.38 216.15 28.38 222.52 39.34 228.82 28.38 228.84 28.38 228.84 28.36"/>
        <rect class="992148d3-9591-4f75-9b13-e8618252b9a6" x="222.44" width="12.71" height="12.71"/>
        <path class="992148d3-9591-4f75-9b13-e8618252b9a6" d="M511,215.71a7.24,7.24,0,1,0,7.23,7.25A7.24,7.24,0,0,0,511,215.71Z" transform="translate(-303.71 -180.18)"/>
        <polygon class="992148d3-9591-4f75-9b13-e8618252b9a6" points="181.03 54.11 196.27 54.11 188.62 40.92 181.03 54.11"/>
      </g>
    </g>
  </g>
</svg>
