<svg id="Layer_1" data-name="Layer 1" xmlns="http://www.w3.org/2000/svg" viewBox="0 0 150.13 102.06">
  <defs>
    <style>
      .cls-1 {
        fill: #fff;
      }
    </style>
  </defs>
  <title>minibingo-hvid</title>
  <path class="cls-1" d="M97.68,41c-3.2,3.89-1.62,14.82-1.25,20.17S97.5,73,97.5,73l.22,1.09c1.22,6.17,9.89,2.71,11.77-1.26.8-1.71.35-7,.2-11-.09-3-.23-5.89-.23-5.89-.59-8.81,7-7.86,9.12-4.62,1.49,2.35,1.52,6.18,1.54,9.08s-.31,7.19-.31,7.19v1.07c-.1,4,3.94,2.26,5.56.23a12.71,12.71,0,0,0,2.31-5.1,37.51,37.51,0,0,0,.23-12.9C125.41,34.47,106.48,30.29,97.68,41Z" transform="translate(0 -0.02)"/>
  <path class="cls-1" d="M83.38,65.59c0-6.83-.23-10.21-.23-10.21-.08-.88.12-5.61-1.85-7.4C77.05,44,69.41,49.32,69.84,56.26c.12,1.06,1,7.18,1.31,9.12s1.68,9.78,1.68,9.78a7.74,7.74,0,0,0,1.52,4c2.84,3,8.78,2,9.16-2.55C83.52,76,83.37,72.74,83.38,65.59Z" transform="translate(0 -0.02)"/>
  <path class="cls-1" d="M83.41,27.53c1.19-12.15-8.37-11-13.65-6.15-5.44,5-2.28,14.21,5,14.47C79.41,36,82.94,32.2,83.41,27.53Z" transform="translate(0 -0.02)"/>
  <path class="cls-1" d="M150,9.61c1.2-12.15-8.37-11-13.65-6.15-5.44,5-2.27,14.2,5,14.46C146,18.12,149.55,14.27,150,9.61Z" transform="translate(0 -0.02)"/>
  <path class="cls-1" d="M148.59,45.74c0-6.84-.23-10.22-.23-10.22-.08-.87.12-5.6-1.85-7.39-4.25-3.94-11.89,1.33-11.46,8.28.12,1.06,1,7.18,1.31,9.12S138,55.31,138,55.31a7.74,7.74,0,0,0,1.52,4c2.84,3.06,8.78,2,9.16-2.55C148.73,56.1,148.58,52.88,148.59,45.74Z" transform="translate(0 -0.02)"/>
  <path class="cls-1" d="M27,60.52c-3.21,3.89-1.63,14.81-1.25,20.16S26.8,92.46,26.8,92.46L27,93.55c1.23,6.18,9.9,2.72,11.78-1.26.8-1.71.35-7,.19-11-.08-3-.22-5.89-.22-5.89-.59-8.81,7.05-7.86,9.12-4.61,1.49,2.34,1.52,6.17,1.54,9.07s-.31,7.2-.31,7.2v1.06c-.1,4,3.94,2.27,5.56.24A12.71,12.71,0,0,0,57,83.26a38,38,0,0,0,.23-12.9C54.7,54,35.8,49.85,27,60.52Z" transform="translate(0 -0.02)"/>
  <path class="cls-1" d="M2,65.67C-1.24,69.56.34,80.49.72,85.83S1.8,97.62,1.8,97.62L2,98.71c1.23,6.17,9.9,2.71,11.78-1.27.8-1.71.35-7,.19-11-.08-3-.22-5.9-.22-5.9-.59-8.8,7-7.85,9.12-4.61,1.49,2.35,1.52,6.17,1.54,9.08s-.31,7.19-.31,7.19v1.07c-.1,4,7.64,4.67,9.26,2.64.65-.8-1.85-5.16-1.39-7.51a38,38,0,0,0,.23-12.9C29.7,59.18,10.8,55,2,65.67Z" transform="translate(0 -0.02)"/>
</svg>
