<svg xmlns="http://www.w3.org/2000/svg" viewBox="0 0 150.12 102.07">
  <title>minibingo</title>
  <path d="M257.88,206c-3.2,3.89-1.62,14.82-1.25,20.17s1.07,11.78,1.07,11.78l.22,1.09c1.22,6.17,9.89,2.71,11.77-1.26.8-1.71.35-7,.2-11-.09-3-.23-5.89-.23-5.89-.59-8.81,7-7.86,9.12-4.62,1.49,2.35,1.52,6.18,1.54,9.08s-.31,7.19-.31,7.19l0,1.07c-.1,4,3.94,2.26,5.56.23a12.61,12.61,0,0,0,2.31-5.1,37.41,37.41,0,0,0,.23-12.9C285.61,199.46,266.68,195.28,257.88,206Z" transform="translate(-160.2 -164.99)"/>
  <path d="M243.58,230.58c0-6.83-.23-10.21-.23-10.21-.08-.88.12-5.61-1.85-7.4-4.25-3.94-11.89,1.34-11.46,8.28.12,1.06,1,7.18,1.31,9.12s1.68,9.78,1.68,9.78a7.75,7.75,0,0,0,1.52,4c2.84,3,8.78,2,9.16-2.55C243.72,240.94,243.57,237.73,243.58,230.58Z" transform="translate(-160.2 -164.99)"/>
  <path d="M243.61,192.52c1.19-12.15-8.37-11-13.65-6.15-5.44,5-2.28,14.21,5,14.47C239.61,201,243.14,197.19,243.61,192.52Z" transform="translate(-160.2 -164.99)"/>
  <path d="M310.22,174.6c1.2-12.15-8.37-11-13.65-6.15-5.44,5-2.27,14.2,5,14.46C306.22,183.11,309.75,179.26,310.22,174.6Z" transform="translate(-160.2 -164.99)"/>
  <path d="M308.79,210.73c0-6.84-.23-10.22-.23-10.22-.08-.87.12-5.6-1.85-7.39-4.25-3.94-11.89,1.33-11.46,8.28.12,1.06,1,7.18,1.31,9.12s1.68,9.78,1.68,9.78a7.69,7.69,0,0,0,1.52,4c2.84,3.06,8.78,2,9.16-2.55C308.93,221.09,308.78,217.87,308.79,210.73Z" transform="translate(-160.2 -164.99)"/>
  <path d="M187.17,225.51c-3.21,3.89-1.63,14.81-1.25,20.16S187,257.45,187,257.45l.21,1.09c1.23,6.18,9.9,2.72,11.78-1.26.8-1.71.35-7,.19-11-.08-3-.22-5.89-.22-5.89-.59-8.81,7.05-7.86,9.12-4.61,1.49,2.34,1.52,6.17,1.54,9.07s-.31,7.2-.31,7.2l0,1.06c-.1,4,3.94,2.27,5.56.24a12.68,12.68,0,0,0,2.31-5.1,37.92,37.92,0,0,0,.23-12.9C214.9,219,196,214.84,187.17,225.51Z" transform="translate(-160.2 -164.99)"/>
  <path d="M162.17,230.66c-3.21,3.89-1.63,14.82-1.25,20.16S162,262.61,162,262.61l.21,1.09c1.23,6.17,9.9,2.71,11.78-1.27.8-1.71.35-7,.19-11-.08-3-.22-5.9-.22-5.9-.59-8.8,7.05-7.85,9.12-4.61,1.49,2.35,1.52,6.17,1.54,9.08s-.31,7.19-.31,7.19l0,1.07c-.1,4,7.64,4.67,9.26,2.64.65-.8-1.85-5.16-1.39-7.51a37.92,37.92,0,0,0,.23-12.9C189.9,224.17,171,220,162.17,230.66Z" transform="translate(-160.2 -164.99)"/>
</svg>
